<?xml version="1.0" encoding="UTF-8" standalone="no"?>
<svg
   width="566.92908pt"
   height="77.148666pt"
   version="1.1"
   viewBox="0 0 566.92908 77.148667"
   id="svg2"
   xmlns="http://www.w3.org/2000/svg"
   xmlns:svg="http://www.w3.org/2000/svg">
  <defs
     id="defs2" />
  <g
     id="g2"
     transform="matrix(0.07401793,0,0,0.07401793,-0.40419717,-5.8574802)">
    <path
       d="M 1188.1,1049.2 C 1005.85,733.57 823.64,417.94 641.4,102.31 631.236,84.705 615.466,78.251 599.951,79.232 c -15.504,-0.97266 -31.285,5.4727 -41.449,23.074 -182.22,315.64 -364.45,631.27 -546.7,946.9 -18.18,31.488 4.9219,72.227 41.449,72.227 h 1093.4 c 36.539,-0.01 59.629,-40.738 41.461,-72.227 z M 599.96,222.54 C 754.47,490.18 909,757.79 1063.51,1025.42 H 136.41 C 290.94,757.8 445.45,490.18 599.96,222.54 Z"
       id="path1" />
    <path
       d="M 708,588 564,660 660,408 H 552 L 456,756 612,684 576,876 540,840 576,1008 672.289,866.3 624,887.995 Z"
       id="path2" />
  </g>
  <path
     style="font-weight:bold;font-size:71.368px;line-height:1.25;font-family:Consolas;-inkscape-font-specification:Consolas;stroke-width:1.7842"
     d="M 126.97743,60.22068 V 40.392365 H 111.50507 V 60.22068 h -8.57252 V 14.674796 h 8.57252 v 18.295018 h 15.47236 V 14.674796 h 8.57253 V 60.22068 Z m 37.56578,-45.092865 q 0,1.149973 -0.41818,2.160555 -0.41817,1.010582 -1.18482,1.77723 -0.7318,0.731801 -1.74238,1.184821 -1.01058,0.418171 -2.1954,0.418171 -1.18482,0 -2.23025,-0.418171 -1.01058,-0.45302 -1.77723,-1.184821 -0.7318,-0.766648 -1.14997,-1.77723 -0.41818,-1.010582 -0.41818,-2.160555 0,-1.149972 0.41818,-2.160554 0.41817,-1.010582 1.14997,-1.777231 0.76665,-0.766648 1.77723,-1.18482 1.04543,-0.4530193 2.23025,-0.4530193 1.18482,0 2.1954,0.4530193 1.01058,0.418172 1.74238,1.18482 0.76665,0.766649 1.18482,1.777231 0.41818,1.010582 0.41818,2.160554 z m -9.40887,16.308703 h -10.00128 v -6.621055 h 18.71319 v 28.784163 h 10.21037 v 6.621054 h -30.14323 v -6.621054 h 11.22095 z m 54.36234,-0.418172 q 0.97574,1.219668 1.35906,2.578726 0.41817,1.324211 0.41817,2.718117 0,2.962051 -1.04543,5.227148 -1.01058,2.265098 -2.89235,3.798395 -1.84693,1.533297 -4.4605,2.334793 -2.57873,0.766648 -5.71502,0.766648 -1.84692,0 -3.41507,-0.348476 -1.56814,-0.383325 -2.36964,-0.871192 -0.59241,0.59241 -1.01058,1.324211 -0.41817,0.696953 -0.41817,1.602992 0,0.557563 0.27878,1.115125 0.27878,0.557563 0.8015,1.010582 0.55756,0.418172 1.28936,0.696953 0.76665,0.278781 1.70753,0.313629 l 8.39829,0.313629 q 2.82266,0.06969 5.08776,0.731801 2.29994,0.627257 3.93778,1.812078 1.63784,1.18482 2.50903,2.892355 0.90604,1.672687 0.90604,3.833242 0,2.474183 -1.11512,4.669586 -1.11513,2.195402 -3.38023,3.798394 -2.23025,1.63784 -5.57562,2.578726 -3.34538,0.940887 -7.77103,0.940887 -4.28626,0 -7.3877,-0.696953 -3.06659,-0.662105 -5.05291,-1.881773 -1.95147,-1.219668 -2.89236,-2.927203 -0.94088,-1.672688 -0.94088,-3.693852 0,-1.219668 0.31363,-2.265097 0.31363,-1.04543 0.94088,-2.021164 0.62726,-0.940887 1.56815,-1.846926 0.94088,-0.906039 2.23025,-1.812078 -1.70754,-0.975734 -2.61358,-2.509031 -0.87119,-1.533297 -0.87119,-3.27568 0,-1.18482 0.31363,-2.195402 0.31363,-1.045429 0.8015,-1.986316 0.52271,-0.940887 1.18482,-1.812078 0.6621,-0.871191 1.3939,-1.707535 -1.28936,-1.289363 -2.16055,-3.101441 -0.83635,-1.846926 -0.83635,-4.599891 0,-2.96205 1.04543,-5.261996 1.08028,-2.334792 2.96206,-3.902937 1.88177,-1.602992 4.46049,-2.404488 2.61358,-0.836344 5.68017,-0.836344 1.56815,0 2.9969,0.174239 1.4636,0.13939 2.64842,0.522714 h 12.26638 v 6.202883 z m -20.0374,33.906768 q 0,2.056011 2.05601,3.031746 2.09086,0.975734 5.85441,0.975734 2.40449,0 4.04233,-0.45302 1.67268,-0.453019 2.71811,-1.18482 1.04543,-0.731801 1.49845,-1.707535 0.45302,-0.975734 0.45302,-2.021164 0,-0.940887 -0.45302,-1.602992 -0.41817,-0.627258 -1.21967,-1.080277 -0.76664,-0.418172 -1.84692,-0.662106 -1.04543,-0.209086 -2.33479,-0.278781 l -7.49225,-0.139391 q -1.01058,0.696953 -1.67269,1.324211 -0.62725,0.627258 -1.01058,1.219668 -0.34848,0.627258 -0.48787,1.254516 -0.10454,0.627257 -0.10454,1.324211 z m 1.42875,-28.400839 q 0,2.82266 1.63784,4.495348 1.67269,1.637839 4.63474,1.637839 1.56815,0 2.71812,-0.522714 1.18482,-0.522715 1.95147,-1.393907 0.76665,-0.871191 1.14997,-2.021164 0.38333,-1.149972 0.38333,-2.404488 0,-2.96205 -1.67269,-4.59989 -1.63784,-1.672687 -4.59989,-1.672687 -1.56815,0 -2.75297,0.522714 -1.14997,0.522715 -1.91662,1.428754 -0.76665,0.871192 -1.14997,2.056012 -0.38333,1.18482 -0.38333,2.474183 z M 243.2989,60.22068 V 37.151533 q 0,-5.819558 -4.3211,-5.819558 -2.16056,0 -4.14688,1.742382 -1.95146,1.742383 -4.14687,4.739281 V 60.22068 h -8.50282 V 10.980945 h 8.50282 v 12.126983 l -0.41817,6.411969 q 1.08028,-1.289364 2.1954,-2.299945 1.11513,-1.04543 2.40449,-1.742383 1.28937,-0.696953 2.78781,-1.04543 1.49845,-0.383324 3.31053,-0.383324 2.71812,0 4.73928,0.906039 2.02117,0.871191 3.38023,2.509031 1.35905,1.602992 2.02116,3.902937 0.69695,2.265098 0.69695,5.087758 v 23.7661 z m 77.77998,0 H 309.71855 L 295.81433,14.674796 h 9.7225 l 7.70133,27.425104 2.47418,8.990695 2.57873,-9.51341 7.63163,-26.902389 h 9.13009 z m 50.70333,-17.981389 q 0,4.181718 -1.18482,7.666484 -1.18482,3.449917 -3.41507,5.924101 -2.23025,2.474183 -5.47108,3.833242 -3.24084,1.359058 -7.38771,1.359058 -3.93778,0 -7.03922,-1.149972 -3.10144,-1.149973 -5.262,-3.41507 -2.16055,-2.299946 -3.31053,-5.715016 -1.14997,-3.449918 -1.14997,-8.01496 0,-4.216566 1.18482,-7.666484 1.21967,-3.449918 3.44992,-5.889254 2.2651,-2.439336 5.50593,-3.763547 3.24083,-1.359058 7.31801,-1.359058 3.97263,0 7.07407,1.18482 3.10144,1.149973 5.262,3.449918 2.16055,2.299945 3.27568,5.715015 1.14997,3.380223 1.14997,7.840723 z m -8.85131,0.209085 q 0,-5.505929 -2.09086,-8.258894 -2.05601,-2.787812 -6.09834,-2.787812 -2.23024,0 -3.79839,0.871191 -1.56814,0.871192 -2.57873,2.404489 -1.01058,1.498449 -1.49845,3.519613 -0.45301,2.021164 -0.45301,4.321109 0,5.540777 2.23025,8.363437 2.23025,2.787812 6.09833,2.787812 2.12571,0 3.69386,-0.836343 1.56814,-0.871192 2.54388,-2.369641 0.97573,-1.533297 1.4636,-3.589308 0.48786,-2.056012 0.48786,-4.425653 z m 27.6342,-24.846377 h -10.00128 v -6.621054 h 18.71319 v 42.618681 h 10.21037 v 6.621054 h -30.14323 v -6.621054 h 11.22095 z m 57.01077,42.270205 q -2.29995,0.522715 -4.63474,0.836343 -2.33479,0.313629 -4.42565,0.313629 -3.48477,0 -6.02865,-0.7318 -2.50903,-0.731801 -4.18172,-2.23025 -1.63784,-1.498449 -2.43933,-3.798395 -0.76665,-2.334793 -0.76665,-5.540777 V 31.436518 h -9.51341 v -6.621055 h 9.51341 v -9.06039 l 8.71191,-2.265097 v 11.325487 h 13.76483 v 6.621055 h -13.76483 v 16.657179 q 0,3.031745 1.39391,4.59989 1.39391,1.533297 4.66959,1.533297 2.09085,0 4.07717,-0.348477 1.98632,-0.348476 3.62416,-0.801496 z m 32.23408,0.348476 -0.20908,-4.634738 q -1.11513,1.18482 -2.3348,2.195402 -1.21966,0.975735 -2.68327,1.707535 -1.4636,0.731801 -3.20598,1.115125 -1.70753,0.418172 -3.76355,0.418172 -2.71811,0 -4.77412,-0.801496 -2.05602,-0.801496 -3.44992,-2.23025 -1.39391,-1.428753 -2.12571,-3.449917 -0.69695,-2.021164 -0.69695,-4.4605 0,-2.509031 1.04543,-4.634738 1.08027,-2.125707 3.24083,-3.659004 2.1954,-1.533297 5.43623,-2.404488 3.27568,-0.871191 7.66649,-0.871191 h 4.63474 v -2.125707 q 0,-1.359059 -0.38333,-2.439336 -0.38332,-1.115125 -1.25451,-1.881774 -0.83635,-0.766648 -2.19541,-1.18482 -1.35906,-0.418172 -3.34537,-0.418172 -3.13629,0 -6.20288,0.731801 -3.03175,0.696953 -5.88926,1.986316 v -6.795292 q 2.54388,-1.010582 5.85441,-1.672688 3.34537,-0.662105 6.93468,-0.662105 3.93779,0 6.76045,0.766648 2.82266,0.731801 4.63473,2.23025 1.84693,1.498449 2.71812,3.763547 0.87119,2.23025 0.87119,5.227148 V 60.22068 Z m -1.21966,-15.646597 h -5.19231 q -2.16055,0 -3.659,0.418172 -1.49845,0.418172 -2.43933,1.149973 -0.94089,0.731801 -1.39391,1.707535 -0.41817,0.940887 -0.41817,2.021164 0,2.160554 1.3939,3.310527 1.39391,1.115125 3.7984,1.115125 1.77723,0 3.69385,-1.289363 1.91662,-1.289363 4.21657,-3.693852 z m 44.81408,-13.555737 q 0.97574,1.219668 1.35906,2.578726 0.41817,1.324211 0.41817,2.718117 0,2.962051 -1.04543,5.227148 -1.01058,2.265098 -2.89235,3.798395 -1.84693,1.533297 -4.4605,2.334793 -2.57873,0.766648 -5.71502,0.766648 -1.84692,0 -3.41507,-0.348476 -1.56814,-0.383325 -2.36964,-0.871192 -0.59241,0.59241 -1.01058,1.324211 -0.41817,0.696953 -0.41817,1.602992 0,0.557563 0.27878,1.115125 0.27878,0.557563 0.8015,1.010582 0.55756,0.418172 1.28936,0.696953 0.76665,0.278781 1.70754,0.313629 l 8.39828,0.313629 q 2.82266,0.06969 5.08776,0.731801 2.29994,0.627257 3.93778,1.812078 1.63784,1.18482 2.50903,2.892355 0.90604,1.672687 0.90604,3.833242 0,2.474183 -1.11512,4.669586 -1.11513,2.195402 -3.38022,3.798394 -2.23025,1.63784 -5.57563,2.578726 -3.34537,0.940887 -7.77103,0.940887 -4.28626,0 -7.3877,-0.696953 -3.06659,-0.662105 -5.05291,-1.881773 -1.95147,-1.219668 -2.89235,-2.927203 -0.94089,-1.672688 -0.94089,-3.693852 0,-1.219668 0.31363,-2.265097 0.31363,-1.04543 0.94088,-2.021164 0.62726,-0.940887 1.56815,-1.846926 0.94089,-0.906039 2.23025,-1.812078 -1.70754,-0.975734 -2.61357,-2.509031 -0.8712,-1.533297 -0.8712,-3.27568 0,-1.18482 0.31363,-2.195402 0.31363,-1.045429 0.8015,-1.986316 0.52271,-0.940887 1.18482,-1.812078 0.6621,-0.871191 1.39391,-1.707535 -1.28937,-1.289363 -2.16056,-3.101441 -0.83634,-1.846926 -0.83634,-4.599891 0,-2.96205 1.04543,-5.261996 1.08027,-2.334792 2.96205,-3.902937 1.88177,-1.602992 4.4605,-2.404488 2.61357,-0.836344 5.68016,-0.836344 1.56815,0 2.9969,0.174239 1.4636,0.13939 2.64842,0.522714 H 528.98 v 6.202883 z m -20.0374,33.906768 q 0,2.056011 2.05601,3.031746 2.09086,0.975734 5.85441,0.975734 2.40449,0 4.04233,-0.45302 1.67269,-0.453019 2.71812,-1.18482 1.04543,-0.731801 1.49844,-1.707535 0.45302,-0.975734 0.45302,-2.021164 0,-0.940887 -0.45302,-1.602992 -0.41817,-0.627258 -1.21966,-1.080277 -0.76665,-0.418172 -1.84693,-0.662106 -1.04543,-0.209086 -2.33479,-0.278781 l -7.49225,-0.139391 q -1.01058,0.696953 -1.67268,1.324211 -0.62726,0.627258 -1.01059,1.219668 -0.34847,0.627258 -0.48786,1.254516 -0.10455,0.627257 -0.10455,1.324211 z m 1.42876,-28.400839 q 0,2.82266 1.63784,4.495348 1.67268,1.637839 4.63473,1.637839 1.56815,0 2.71812,-0.522714 1.18482,-0.522715 1.95147,-1.393907 0.76665,-0.871191 1.14997,-2.021164 0.38333,-1.149972 0.38333,-2.404488 0,-2.96205 -1.67269,-4.59989 -1.63784,-1.672687 -4.59989,-1.672687 -1.56815,0 -2.75297,0.522714 -1.14997,0.522715 -1.91662,1.428754 -0.76664,0.871192 -1.14997,2.056012 -0.38332,1.18482 -0.38332,2.474183 z m 62.13337,3.27568 q 0,0.871191 -0.0697,2.265097 -0.0348,1.393906 -0.13939,2.613574 h -23.27823 q 0,2.334793 0.69695,4.112024 0.7318,1.77723 2.02117,2.996898 1.32421,1.18482 3.13629,1.812078 1.84692,0.627258 4.07717,0.627258 2.57873,0 5.50593,-0.383325 2.96205,-0.418171 6.13319,-1.32421 v 6.760445 q -1.35906,0.383324 -2.96205,0.696953 -1.60299,0.313629 -3.27568,0.557562 -1.67269,0.243934 -3.38022,0.348477 -1.70754,0.13939 -3.31053,0.13939 -4.04233,0 -7.24831,-1.149972 -3.20599,-1.149973 -5.43624,-3.380223 -2.23025,-2.265097 -3.41507,-5.575624 -1.18482,-3.310528 -1.18482,-7.666484 0,-4.32111 1.18482,-7.840723 1.18482,-3.55446 3.34538,-6.063492 2.16055,-2.543878 5.22715,-3.902937 3.10144,-1.393906 6.89983,-1.393906 3.76355,0 6.6559,1.18482 2.89236,1.149973 4.84383,3.240832 1.95147,2.090859 2.96205,4.983215 1.01058,2.892355 1.01058,6.342273 z m -8.64222,-1.219668 q 0.0349,-2.090859 -0.52271,-3.624156 -0.55757,-1.568145 -1.5333,-2.578727 -0.94089,-1.010582 -2.23025,-1.498449 -1.25452,-0.487867 -2.71812,-0.487867 -3.20598,0 -5.26199,2.160555 -2.05601,2.125707 -2.43934,6.028644 z"
     id="text2"
     aria-label="High Voltage" />
</svg>
